<svg xmlns="http://www.w3.org/2000/svg" width="343.002" height="88.778" viewBox="0 0 343.002 88.778">
    <defs>
        <style>
            .prefix__cls-2{fill:#1a203b}.prefix__cls-3{fill:#b5e6e4}.prefix__cls-4{fill:#f3633a}.prefix__cls-5{fill:#f1483f}.prefix__cls-6{fill:#f68b3a}.prefix__cls-7{fill:#f89b4b}.prefix__cls-10{fill:#1eb3a6}.prefix__cls-11{fill:#98dcd3}.prefix__cls-12{fill:#55566b}.prefix__cls-13{fill:#2c335d}.prefix__cls-14{fill:#f9a945}.prefix__cls-18{fill:#f79329}
        </style>
    </defs>
    <g id="prefix__Banner" transform="translate(-16 -570.601)">
        <g id="prefix__Group_36" data-name="Group 36">
            <path id="prefix__bg" d="M4 0h335a4 4 0 0 1 4 4v63c0 2.209.15 0-2.059 0L4 71a4 4 0 0 1-4-4V4a4 4 0 0 1 4-4z" transform="translate(16 586)" style="fill:#afe4de"/>
            <g id="prefix__Illustration" transform="translate(-794.125 -3.662)">
                <path id="prefix__path18" d="M535.26-478.083a1.731 1.731 0 0 0-.448.18 1.411 1.411 0 0 0-.4.356l-.708-.934a2.291 2.291 0 0 1-.783.219c-.05 0-.1.012-.153.014h-.283a5.706 5.706 0 0 1-4.2-2.9c-1.356-2.146-1.488-4.511-.363-5.718a.51.51 0 0 1 .037-.039 2.24 2.24 0 0 1 .486-.416c1.589-1 4.107.135 5.627 2.54 1.3 2.066 1.445 4.4.452 5.647l.738 1.05" class="prefix__cls-2" transform="translate(552.126 1075.202)"/>
                <path id="prefix__path20" d="M536.5-476.184c-1.589 1-4.106-.135-5.627-2.541a5.885 5.885 0 0 1-.966-4.636 1.561 1.561 0 0 1 .16-.112c1.589-1 4.109.135 5.627 2.54a6 6 0 0 1 .95 4.648 1.627 1.627 0 0 1-.144.1" class="prefix__cls-3" transform="translate(550.018 1072.066)"/>
                <path id="prefix__path22" d="M598.887-488.564q-.021 9.248-.352 18.491h-22.9v-11.561a27.553 27.553 0 0 1-3.164-.082 3.682 3.682 0 0 1-1.776-.537 4.027 4.027 0 0 1-1.251-3.1 41.2 41.2 0 0 1 .034-6.982l.185-2.828a13.628 13.628 0 0 1 1.522-4.4 7.676 7.676 0 0 1 3.44-3.218c.1.1.2.194.306.29a3.2 3.2 0 0 0 1.792 1.043 2.188 2.188 0 0 0 1.107-.237 24 24 0 0 0 1.945 4.013 13.086 13.086 0 0 0 3.746-10.267h-.028a4.066 4.066 0 0 0 .014-.577 38.562 38.562 0 0 1 8.466.372l3.038.361v.025s4.232.708 3.881 19.2" class="prefix__cls-4" transform="translate(517.78 1092.273)"/>
                <path id="prefix__path24" d="M678.077-397.5l9.445-2.709-.217 16.152-7.779-9.366-1.449-4.077" class="prefix__cls-5" transform="translate(429.144 1003.914)"/>
                <path id="prefix__path26" d="M654.148-381.543a1.271 1.271 0 0 1-.076-.119c0-1.205.016-2.415.05-3.62l3.5-.285v.048a3.365 3.365 0 0 1 1.486 2.467 6.843 6.843 0 0 1-.377 2.931 2.17 2.17 0 0 1-.383.792 2.423 2.423 0 0 1-1.876.564 5.657 5.657 0 0 1-2.972-.516c-.338-.2-.662-.612-.47-.957a.825.825 0 0 1 .393-.308 4.949 4.949 0 0 1 1.392-.42 1.714 1.714 0 0 1-.673-.577" class="prefix__cls-6" transform="translate(449.597 991.985)"/>
                <path id="prefix__path28" d="M644.347-484.931c-.023.053-.048.105-.075.157a3.606 3.606 0 0 1-2.374 1.534 35.614 35.614 0 0 1-6.814 1c-.061 0-.121.009-.182.016l-3.5.285q-2.77.229-5.542.454a16.278 16.278 0 0 1-.306-1.785c-.061-.486-.107-.972-.155-1.458l-.292-3.011c0-.032 0-.064-.009-.1q6.376-1.257 12.838-1.97a34.763 34.763 0 0 1-2.025-9.457c-.1-1.465-.032-3.141 1.071-4.113a4.311 4.311 0 0 1 3.177-.783c.1.007.206.016.31.025a3.55 3.55 0 0 1 2 .726 4.44 4.44 0 0 1 1.171 2.657 60.01 60.01 0 0 1 .956 14.419 4.283 4.283 0 0 1-.244 1.4" class="prefix__cls-4" transform="translate(472.319 1088.639)"/>
                <path id="prefix__path30" d="M565.856-436.093c0-.025.009-.048.014-.071.057-.014.114-.025.173-.034a4.269 4.269 0 0 1 3.054.991 25.829 25.829 0 0 0 2.646 1.961 8.849 8.849 0 0 0 4.111.879q.144 1.507.292 3.011c.048.486.094.972.155 1.459-1.913-.5-3.9-.644-5.85-.979a5.578 5.578 0 0 1-3.54-1.643 4.47 4.47 0 0 1-.824-2.746 1.322 1.322 0 0 1-.4-.069 1.5 1.5 0 0 1-.982-1.011 1.5 1.5 0 0 1 .267-1.269 1.411 1.411 0 0 1 .4-.356 1.735 1.735 0 0 1 .447-.18l.041.059" class="prefix__cls-7" transform="translate(521.571 1033.271)"/>
                <path id="prefix__path32" d="M626.37-276.758h-22.9V-300.3h22.9v23.544" class="prefix__cls-2" transform="translate(489.945 922.502)"/>
                <path id="prefix__path34" d="M565.428-552.922l.059-.011a3.743 3.743 0 0 1 .114 1.475 2.021 2.021 0 0 1-.915-.842l-1.9-2.668a.6.6 0 0 0-.31-.27.575.575 0 0 0-.372.075c-1.682.76-3.225 1.81-4.928 2.522a10.358 10.358 0 0 1-1.635.534 6.2 6.2 0 0 1-3.752-.164 2.5 2.5 0 0 1-.961-.635 1.27 1.27 0 0 1-.322-1.075 1.523 1.523 0 0 1 1.176-1.029c.532-.137 1.091-.117 1.63-.222a5.575 5.575 0 0 0 2.4-1.253c.708-.576 1.351-1.231 2.084-1.771a4.727 4.727 0 0 1 2.493-1.03 2.5 2.5 0 0 1 2.324 1.153 2.913 2.913 0 0 1 1.662-.913 1.962 1.962 0 0 1 1.751.609 3.014 3.014 0 0 1 .543 1.217 15.5 15.5 0 0 1 .454 2.721l-.041-.066c-.251-.393-.694-.8-1.126-.621a1.011 1.011 0 0 0-.486.874 4.507 4.507 0 0 0 .057 1.39" transform="translate(533.119 1133.554)"/>
                <path id="prefix__path36" d="M621.02-504.9a13.086 13.086 0 0 1-3.746 10.267 24 24 0 0 1-1.945-4.013 5.221 5.221 0 0 0 .61-.333 13.943 13.943 0 0 0 4.517-4.535 3.749 3.749 0 0 0 .47-1 2.455 2.455 0 0 0 .066-.386h.028" class="prefix__cls-6" transform="translate(480.278 1089.236)"/>
                <path id="prefix__path38" d="M584.757-525.174a2.188 2.188 0 0 1-1.107.237 3.2 3.2 0 0 1-1.792-1.043c-.1-.1-.2-.192-.306-.29a13.939 13.939 0 0 1-2.639-3.175.835.835 0 0 1-.139-.685c.089-.228.349-.336.5-.534.283-.379.053-.913-.18-1.324l-1.248-2.207-.028-.119a10.373 10.373 0 0 0 1.634-.534c1.7-.712 3.246-1.762 4.928-2.523a.574.574 0 0 1 .372-.075.6.6 0 0 1 .311.269l1.9 2.668c.078.11.159.223.246.329a.369.369 0 0 0 .646-.3 5.767 5.767 0 0 0-.15-.653 4.51 4.51 0 0 1-.057-1.39c.056-.472.257-1.023.909-.9a.906.906 0 0 1 .658.563 1 1 0 0 0 .085.153 9.353 9.353 0 0 1 1.128 4.408c0 .1.011.192.014.29a4.074 4.074 0 0 1-.014.577 2.454 2.454 0 0 1-.066.386 3.751 3.751 0 0 1-.47 1 13.944 13.944 0 0 1-4.517 4.536 5.207 5.207 0 0 1-.61.333" class="prefix__cls-7" transform="translate(510.85 1115.76)"/>
                <path id="prefix__path40" d="M597.429-499.906q-.322.08-.647.145-.163.033-.326.061c-.04.007-.088.011-.132.02v-.045q.036-.673.122-1.343a.113.113 0 0 0-.079-.134.11.11 0 0 0-.134.079q-.051.389-.086.781-.017.2-.03.393a2.184 2.184 0 0 0-.017.365c.014.129.129.144.234.128.129-.02.258-.044.386-.068q.385-.073.765-.168a.11.11 0 0 0-.057-.213" transform="translate(495.951 1086.22)" style="fill:#c56528"/>
                <path id="prefix__path42" d="M604.54-491.345a1.384 1.384 0 0 1-.583.992 1.238 1.238 0 0 1-1.075.057 2.243 2.243 0 0 1-.921-.741.116.116 0 0 1-.022-.055.116.116 0 0 1 .011-.182q1.082-.749 2.221-1.41a.1.1 0 0 1 .1 0 .118.118 0 0 1 .137.071 2.325 2.325 0 0 1 .134 1.271" transform="translate(491.221 1079.287)" style="fill:#fffefd"/>
                <path id="prefix__path44" d="M605.573-519.677a.9.9 0 0 1-.268-.669.145.145 0 0 1 .013-.046.438.438 0 0 1 .031-.086.31.31 0 0 1 .343-.158.826.826 0 0 1 .58.407.5.5 0 0 1-.088.627.394.394 0 0 1-.323.094.531.531 0 0 1-.288-.169" class="prefix__cls-2" transform="translate(488.45 1102.058)"/>
                <path id="prefix__path46" d="M587.04-509.357a.9.9 0 0 1-.268-.669.142.142 0 0 1 .013-.046.436.436 0 0 1 .031-.086.31.31 0 0 1 .343-.158.828.828 0 0 1 .581.407.5.5 0 0 1-.088.627.393.393 0 0 1-.323.095.53.53 0 0 1-.288-.169" class="prefix__cls-2" transform="translate(503.552 1093.648)"/>
                <path id="prefix__path48" d="M601.924-527.042a1.733 1.733 0 0 0-1.744.508.337.337 0 0 0 0 .467.335.335 0 0 0 .467 0 1.388 1.388 0 0 1 .133-.134l.031-.026.06-.041a1.416 1.416 0 0 1 .165-.091l.025-.011c.03-.01.059-.021.09-.03a1.66 1.66 0 0 1 .173-.04H601.615l.041.008c.034.007.068.016.1.025a.333.333 0 0 0 .4-.236.336.336 0 0 0-.236-.4" class="prefix__cls-2" transform="translate(492.701 1107.325)"/>
                <path id="prefix__path50" d="M580.759-515.24a1.732 1.732 0 0 1 1.262-1.306.337.337 0 0 1 .415.214.334.334 0 0 1-.214.414 1.36 1.36 0 0 0-.18.055l-.037.015-.065.034a1.353 1.353 0 0 0-.157.1l-.022.017-.068.065a1.723 1.723 0 0 0-.116.134l-.017.026-.048.081c-.015.027-.029.055-.042.084l-.017.038v.008l-.007.02c0 .013-.009.027-.012.04-.01.034-.017.068-.025.1a.333.333 0 0 1-.4.246.336.336 0 0 1-.246-.4" class="prefix__cls-2" transform="translate(508.456 1098.729)"/>
                <path id="prefix__path52" d="M613.814-507.784v.025c-.106-.01-.207-.017-.311-.025a4.306 4.306 0 0 0-3.179.782c-1.1.972-1.172 2.648-1.069 4.114a34.761 34.761 0 0 0 2.024 9.457q-5.508.607-10.96 1.612l-7.932-10.38a6.4 6.4 0 0 1 1.041-.58l.306.291a3.2 3.2 0 0 0 1.792 1.041 2.181 2.181 0 0 0 1.108-.237 23.97 23.97 0 0 0 1.945 4.013 13.089 13.089 0 0 0 3.746-10.266h-.027a4.085 4.085 0 0 0 .012-.577 38.646 38.646 0 0 1 8.467.373q1.514.181 3.038.36" class="prefix__cls-5" transform="translate(498.975 1092.269)"/>
                <path id="prefix__path54" d="M648.564-245.4l-.007.045h-63a6.588 6.588 0 0 1 3.429-3.783 18.54 18.54 0 0 1 5.708-1.482 15.628 15.628 0 0 1-3.411-6.472c-.465-1.824-.428-4.1 1.121-5.168a4.584 4.584 0 0 1 3.616-.354 13.252 13.252 0 0 1 5.928 3.09 26.741 26.741 0 0 1 .473-9.863c.469-1.951 1.43-4.118 3.374-4.621 1.758-.458 3.541.685 4.792 2a14.647 14.647 0 0 1 3.671 6.986c1.966-3.493 4.01-7.079 7.16-9.555 1.665-1.307 3.984-2.275 5.861-1.292a4.592 4.592 0 0 1 2.19 3.72 13.55 13.55 0 0 1-.6 4.435l-1.464 5.85a21.536 21.536 0 0 1 7.808-2.975 5.069 5.069 0 0 1 3.332.287 3.878 3.878 0 0 1 1.553 4.133 11.342 11.342 0 0 1-2.126 4.17l-2.547 3.638a10.736 10.736 0 0 1 8.062.883 10.737 10.737 0 0 1 5.079 6.326" class="prefix__cls-10" transform="translate(504.542 902.919)"/>
                <path id="prefix__path56" d="M702.956-211.276v18.576a.186.186 0 0 0 .372 0v-18.576a.186.186 0 0 0-.372 0" class="prefix__cls-11" transform="translate(408.871 850.101)"/>
                <path id="prefix__path58" d="M766.229-205.982q-1.711 2.148-3.257 4.419v-5.7a.2.2 0 0 0 .021-.1q1.279-2.063 2.726-4.015c.143-.192-.181-.377-.322-.186q-1.278 1.723-2.424 3.539v-8.675a.186.186 0 0 0-.372 0v9.053c-1.322-.636-2.751-1.029-4.041-1.735-.21-.115-.4.207-.186.322 1.351.739 2.854 1.134 4.227 1.826v5.636q-1.773-1-3.487-2.109c-.2-.131-.387.193-.186.322q1.8 1.167 3.674 2.217v3.8a.186.186 0 0 0 .372 0v-3.546a.2.2 0 0 0 .025-.025q1.65-2.456 3.493-4.773c.148-.186-.112-.452-.261-.265" class="prefix__cls-11" transform="translate(363.786 854.522)"/>
                <path id="prefix__path60" d="M706.334-198.986a49.255 49.255 0 0 0-3.341 4.61c-.129.2.193.388.322.186a48.375 48.375 0 0 1 3.28-4.531c.15-.184-.11-.451-.261-.265" class="prefix__cls-11" transform="translate(408.865 839.99)"/>
                <path id="prefix__path62" d="M706.828-151.183a51.74 51.74 0 0 0-3.666 4.491c-.141.193.183.378.323.186a50.87 50.87 0 0 1 3.6-4.412c.162-.176-.1-.442-.261-.265" class="prefix__cls-11" transform="translate(408.73 801.031)"/>
                <path id="prefix__path64" d="M689.581-164.324a11.741 11.741 0 0 0-1.429-1.64l-1.559-1.674c-.163-.176-.428.086-.265.261l1.515 1.627.746.8a5.554 5.554 0 0 1 .668.809c.128.2.451.019.324-.185" class="prefix__cls-11" transform="translate(422.461 814.441)"/>
                <path id="prefix__path66" d="M690.641-206.051q-1.354-1.528-2.847-2.924c-.175-.163-.44.1-.265.262q1.492 1.394 2.847 2.924c.159.18.424-.083.265-.262" class="prefix__cls-11" transform="translate(421.489 848.121)"/>
                <path id="prefix__path70" d="M144.23-234.548h-59.2c-.283-1.717 1.348-3.269 2.979-4.01a12.181 12.181 0 0 1 8.155-.667 15.215 15.215 0 0 1-3.6-5.663 6.341 6.341 0 0 1 1.292-6.308 6.064 6.064 0 0 1 5.738-1.214 11.548 11.548 0 0 1 5.094 3.292 14.87 14.87 0 0 1-.041-10.742c.615-1.586 1.795-3.251 3.5-3.314a3.974 3.974 0 0 1 2.376.864 11.026 11.026 0 0 1 3.824 5.5 32.586 32.586 0 0 1 1.3 6.672 12.082 12.082 0 0 1 3.526-4.163c1.5-1.113 3.578-1.862 5.221-.964 1.616.882 2.115 2.96 2.223 4.8a23.334 23.334 0 0 1-.659 7.038 13.556 13.556 0 0 1 6.643-2.823 9.647 9.647 0 0 1 6.9 1.769c2.986 2.279 4.073 6.226 4.736 9.927" class="prefix__cls-10" transform="translate(906.845 892.248)"/>
                <path id="prefix__path72" d="M195.142-216.426v-4.86a.18.18 0 0 0 .067-.065 58.048 58.048 0 0 1 3.481-5.26c.143-.192-.181-.377-.323-.186a58.084 58.084 0 0 0-3.226 4.837v-11.429a.186.186 0 0 0-.372 0v16.535q-2.012-2.075-3.906-4.26c-.157-.182-.421.081-.265.261q2.014 2.334 4.171 4.539v5.415a.186.186 0 0 0 .372 0v-1.309a31.966 31.966 0 0 1 3.12-3.816c.165-.173-.1-.439-.261-.265a32.578 32.578 0 0 0-2.859 3.45v-3.506a.162.162 0 0 0 0-.082" class="prefix__cls-11" transform="translate(826.434 868.12)"/>
                <path id="prefix__path74" d="M262.581-181.073a44.35 44.35 0 0 0-2.765 3.948c.025-1.051.047-2.1.079-3.154q.045-1.46.1-2.919c.009-.239-.364-.238-.372 0q-.176 4.8-.252 9.605a27.5 27.5 0 0 1-3.458-2.267c-.189-.146-.374.178-.186.322a27.554 27.554 0 0 0 3.635 2.368c0 .1 0 .2-.006.3q-.022 1.46-.035 2.92a.186.186 0 0 0 .372 0q.015-1.647.044-3.293a.177.177 0 0 0 0-.083q.027-1.565.062-3.13a.174.174 0 0 0 .076-.068 43.438 43.438 0 0 1 2.966-4.288c.146-.186-.114-.453-.261-.265" class="prefix__cls-11" transform="translate(773.385 827.218)"/>
                <path id="prefix__path76" d="M162.318-146.183c-.8.958-1.558 1.955-2.272 2.982.067-1.307.124-2.614.163-3.923.007-.24-.365-.238-.372 0q-.1 3.442-.334 6.878c-.016.239.356.236.372 0 .054-.8.1-1.6.139-2.4a.18.18 0 0 0 .146-.081q1.131-1.655 2.42-3.192c.153-.182-.108-.449-.262-.265" class="prefix__cls-11" transform="translate(851.735 797.821)"/>
                <path id="prefix__path78" d="M553.258-354.36l2.953 5.537-.037.018h-21.1l-5-5.481.059-.056h23.09l.037-.019" class="prefix__cls-2" transform="translate(549.755 966.555)"/>
                <path id="prefix__path80" d="M417.934-385.61l5.924 6.494.3.328-1.378 1.255-2.424-2.659-15.11-16.57-15.11 16.57-2.424 2.659-1.378-1.255.376-.413 5.831-6.393 4.941-5.418 1.97-2.16 5.794-6.352 5.794 6.352 1.9 2.081 5 5.481" class="prefix__cls-2" transform="translate(666.89 1003.359)"/>
                <path id="prefix__path82" d="M331.283-354.126l-4.941 5.418-.018-.015H305.1l2.953-5.537h23.086l.145.134" class="prefix__cls-2" transform="translate(733.087 966.473)"/>
                <path id="prefix__path84" d="M354.638-388v4.219h-4.215V-388h4.215" class="prefix__cls-2" transform="translate(696.152 993.966)"/>
                <path id="prefix__path86" d="M592.4-128.324v3.549h-22.256v-3.549H592.4" class="prefix__cls-12" transform="translate(517.1 782.355)"/>
                <path id="prefix__path88" d="M578.211-324.447l3.426 6.427h-18.55l-.093.086-5.924-6.494h21.1l.037-.018" class="prefix__cls-13" transform="translate(527.755 942.178)"/>
                <path id="prefix__path90" d="M586.3-270.81v-1.78h-1.638v-13.71h-8.207v13.71h-1.638v1.78zm3.924-23.276v29.874h-20.08v-18.476h.045v-1.538h-.045v-10.851l2.424 2.659 1.378-1.255-.3-.328.093-.086h16.48" class="prefix__cls-14" transform="translate(517.1 918.244)"/>
                <path id="prefix__path92" d="M606.855-173.588v1.78h-11.483v-1.78h11.484" class="prefix__cls-13" transform="translate(496.541 819.241)"/>
                <path id="prefix__path94" d="M543.828-365.2l1.072 2-.037.019h-23.094l-.059.056-1.9-2.081h24.017" class="prefix__cls-13" transform="translate(558.117 975.392)"/>
                <path id="prefix__path96" d="M612.431-247.659v13.71h-.749v-12.638h-6.635v12.638h-.823v-13.71h8.207" class="prefix__cls-13" transform="translate(489.328 879.603)"/>
                <path id="prefix__path98" d="M632.748-207.726v6.319h-2.673v-6.319h2.673" class="prefix__cls-3" transform="translate(468.262 847.061)"/>
                <path id="prefix__path100" d="M632.748-214.063v1.173h-2.673v-1.173h2.673" class="prefix__cls-13" transform="translate(468.262 852.226)"/>
                <path id="prefix__path102" d="M632.748-241.865v5.146h-2.673v-5.146h2.673" class="prefix__cls-3" transform="translate(468.262 874.881)"/>
                <path id="prefix__path104" d="M625.057-207.726v6.319h-1.14v-6.319h1.14" class="prefix__cls-13" transform="translate(473.28 847.061)"/>
                <path id="prefix__path106" d="M625.057-214.063v1.173h-1.14v-1.173h1.14" class="prefix__cls-13" transform="translate(473.28 852.226)"/>
                <path id="prefix__path108" d="M625.057-241.865v5.146h-1.14v-5.146h1.14" class="prefix__cls-13" transform="translate(473.28 874.881)"/>
                <path id="prefix__path110" d="M611.492-207.726v6.319h-2.822v-6.319h2.822" class="prefix__cls-3" transform="translate(485.705 847.061)"/>
                <path id="prefix__path112" d="M611.492-214.063v1.173h-2.822v-1.173h2.822" class="prefix__cls-13" transform="translate(485.705 852.226)"/>
                <path id="prefix__path114" d="M611.492-241.865v5.146h-2.822v-5.146h2.822" class="prefix__cls-3" transform="translate(485.705 874.881)"/>
                <path id="prefix__path116" d="M437.092-209.669v3.549h-4.442v-2.837h-4.744v-16.067h-11.848v16.067h-4.744v2.837h-4.442v-22.025h30.22v18.476" class="prefix__cls-14" transform="translate(650.151 863.701)"/>
                <path id="prefix__path118" d="M437.092-236.454v1.538h-30.22v-1.538h30.22" transform="translate(650.151 870.472)" style="fill:#fcd8a1"/>
                <path id="prefix__path120" d="M429.892-358.82v-1.806h-2.26v-13.908h-11.3v13.908h-2.26v1.806zm7.2-9.208v10.851h-30.22v-10.851l15.11-16.57 15.11 16.57" class="prefix__cls-14" transform="translate(650.151 994.721)"/>
                <path id="prefix__path122" d="M452.208-124.481v2.837h-21.336v-2.837h21.336" class="prefix__cls-12" transform="translate(630.594 779.224)"/>
                <path id="prefix__path124" d="M461.6-255.082v1.806h-15.821v-1.806H461.6" class="prefix__cls-13" transform="translate(618.446 885.652)"/>
                <path id="prefix__path126" d="M473.35-211.288v16.067h-10.713v-16.067h10.713" transform="translate(604.708 849.963)" style="fill:#48141c"/>
                <path id="prefix__path128" d="M469.288-330.221v13.908h-1.132v-12.82h-9.138v12.82h-1.028v-13.908h11.3" class="prefix__cls-13" transform="translate(608.494 946.883)"/>
                <path id="prefix__path130" d="M495.812-289.725v6.412h-3.884v-6.412h3.884" class="prefix__cls-3" transform="translate(580.839 913.882)"/>
                <path id="prefix__path132" d="M495.812-296.142v1.188h-3.884v-1.188h3.884" class="prefix__cls-13" transform="translate(580.839 919.112)"/>
                <path id="prefix__path134" d="M495.812-324.347v5.221h-3.884v-5.221h3.884" class="prefix__cls-3" transform="translate(580.839 942.097)"/>
                <path id="prefix__path136" d="M485.011-289.725v6.412h-1.571v-6.412h1.571" class="prefix__cls-13" transform="translate(587.755 913.882)"/>
                <path id="prefix__path138" d="M485.011-296.142v1.188h-1.571v-1.188h1.571" class="prefix__cls-13" transform="translate(587.755 919.112)"/>
                <path id="prefix__path140" d="M485.011-324.347v5.221h-1.571v-5.221h1.571" class="prefix__cls-13" transform="translate(587.755 942.097)"/>
                <path id="prefix__path142" d="M467.226-289.725v6.412h-3.683v-6.412h3.683" class="prefix__cls-3" transform="translate(603.97 913.882)"/>
                <path id="prefix__path144" d="M467.226-296.142v1.188h-3.683v-1.188h3.683" class="prefix__cls-13" transform="translate(603.97 919.112)"/>
                <path id="prefix__path146" d="M467.226-324.347v5.221h-3.683v-5.221h3.683" class="prefix__cls-3" transform="translate(603.97 942.097)"/>
                <path id="prefix__path148" d="M457.637-211.288v16.067H456.5v-16.067h1.136" transform="translate(609.708 849.963)" style="fill:#1e0b0d"/>
                <path id="prefix__path150" d="M346.254-365.2l-1.97 2.16-.145-.134h-23.086l1.08-2.026h24.121" class="prefix__cls-13" transform="translate(720.086 975.392)"/>
                <path id="prefix__path152" d="M311.31-324.332l-5.831 6.393h-18.826l3.414-6.408h21.224l.018.015" class="prefix__cls-13" transform="translate(748.119 942.097)"/>
                <path id="prefix__path154" d="M308.9-128.324v3.549h-22.247v-3.549H308.9" class="prefix__cls-12" transform="translate(748.119 782.355)"/>
                <path id="prefix__path156" d="M313.809-270.81v-1.78h-1.639v-13.71h-8.207v13.71h-1.638v1.78zm4.669-11.878v18.476H298.4v-29.874h16.652l-.376.413 1.378 1.255 2.424-2.659v12.389" class="prefix__cls-14" transform="translate(738.546 918.244)"/>
                <path id="prefix__path158" d="M331.088-173.588v1.78H319.6v-1.78h11.483" class="prefix__cls-13" transform="translate(721.266 819.241)"/>
                <path id="prefix__path160" d="M336.662-247.659v13.71h-.823v-12.638H329.2v12.638h-.749v-13.71h8.207" class="prefix__cls-13" transform="translate(714.054 879.603)"/>
                <path id="prefix__path162" d="M355.922-207.726v6.319H353.1v-6.319h2.823" class="prefix__cls-3" transform="translate(693.972 847.061)"/>
                <path id="prefix__path164" d="M355.922-214.063v1.173H353.1v-1.173h2.823" class="prefix__cls-13" transform="translate(693.972 852.226)"/>
                <path id="prefix__path166" d="M355.922-241.865v5.146H353.1v-5.146h2.823" class="prefix__cls-3" transform="translate(693.972 874.881)"/>
                <path id="prefix__path168" d="M348.083-207.726v6.319h-1.139v-6.319h1.139" class="prefix__cls-13" transform="translate(698.988 847.061)"/>
                <path id="prefix__path170" d="M348.083-214.063v1.173h-1.139v-1.173h1.139" class="prefix__cls-13" transform="translate(698.988 852.226)"/>
                <path id="prefix__path172" d="M348.083-241.865v5.146h-1.139v-5.146h1.139" class="prefix__cls-13" transform="translate(698.988 874.881)"/>
                <path id="prefix__path174" d="M335.173-207.726v6.319H332.5v-6.319h2.673" class="prefix__cls-3" transform="translate(710.759 847.061)"/>
                <path id="prefix__path176" d="M335.173-214.063v1.173H332.5v-1.173h2.673" class="prefix__cls-13" transform="translate(710.759 852.226)"/>
                <path id="prefix__path178" d="M335.173-241.865v5.146H332.5v-5.146h2.673" class="prefix__cls-3" transform="translate(710.759 874.881)"/>
                <path id="prefix__path180" d="M390.134-295.077l-3.8 30.865h3.8z" class="prefix__cls-18" transform="translate(666.889 918.244)"/>
                <path id="prefix__path182" d="M570.144-264.212l6.308-29.874h-2.711l-.093.086.3.328-1.378 1.255-2.424-2.659v30.865" class="prefix__cls-18" transform="translate(517.1 918.244)"/>
                <path id="prefix__path184" d="M85.171-109.314L240.8-109.5s-17.756 5.526-81.125 5.526-74.5-5.342-74.5-5.342" transform="translate(912.308 767.014)" style="fill:#e3e4e2"/>
                <path id="prefix__path190" d="M311.585-238.311l.563 1.14 1.259.183-.911.888.215 1.253-1.126-.592-1.126.592.215-1.253-.911-.888 1.259-.183.563-1.14" class="prefix__cls-14" transform="translate(729.286 871.985)"/>
                <path id="prefix__path214" d="M311.585-150.04l.563 1.14 1.259.183-.911.888.215 1.253-1.126-.592-1.126.592.215-1.253-.911-.888 1.259-.183.563-1.14" class="prefix__cls-14" transform="translate(729.286 800.052)"/>
            </g>
        </g>
        <text id="prefix__Stay_Home_Stay_Safe_" data-name="Stay Home, Stay Safe!" transform="translate(32 624)" style="fill:#313131;font-size:16px;font-family:Poppins-Medium,Poppins;font-weight:500">
            <tspan x="0" y="0">Stay Home, Stay Safe!</tspan>
        </text>
    </g>
</svg>
