<svg xmlns="http://www.w3.org/2000/svg" width="274.213" height="95.039" viewBox="0 0 274.213 95.039">
    <defs>
        <style>
            .prefix__cls-2{fill:#1a203b}.prefix__cls-3{fill:#b5e6e4}.prefix__cls-4{fill:#f3633a}.prefix__cls-5{fill:#f1483f}.prefix__cls-6{fill:#f68b3a}.prefix__cls-7{fill:#f89b4b}.prefix__cls-10{fill:#1eb3a6}.prefix__cls-11{fill:#98dcd3}.prefix__cls-12{fill:#55566b}.prefix__cls-13{fill:#2c335d}.prefix__cls-14{fill:#f9a945}.prefix__cls-18{fill:#f79329}
        </style>
    </defs>
    <g id="prefix__Group_21" data-name="Group 21" transform="translate(-890.265 -574.263)">
        <path id="prefix__path16" d="M358.99-414.512c-.582 1.325-1.232 2.636-1.922 3.938H99.1a42.2 42.2 0 0 1-7.72-10.934c-2.381-4.963-3.76-10.331-3.041-15.561.685-5.009 3.716-9.859 10.062-12.7 5.887-2.64 13.089-3.388 19.85-4.373 7.06-1.028 13.8-2.463 19.684-5.4a36.61 36.61 0 0 0 13.944-12c6.263-8.937 10.722-20.406 25.659-24.474 16.609-4.523 32.577 4.763 47.147 8.767a53.127 53.127 0 0 0 22.612 1.571c7.207-1.155 13.783-3.578 20.516-5.585 6.669-1.99 13.724-3.591 21.1-3.105a42.831 42.831 0 0 1 18.545 5.515c5.183 3.046 8.967 7.089 10.458 11.656 1.545 4.743 1.124 9.8 3.726 14.386a14.436 14.436 0 0 0 5.808 5.518 45.5 45.5 0 0 0 9.025 3.372 75.9 75.9 0 0 1 9.578 3.179 30.023 30.023 0 0 1 7.8 5c10.072 8.974 9.666 20.879 5.134 31.231" transform="translate(802.114 1077.437)" style="fill:#afe4de"/>
        <path id="prefix__path18" d="M535.831-477.406a1.854 1.854 0 0 0-.479.193 1.511 1.511 0 0 0-.425.381l-.757-1a2.452 2.452 0 0 1-.838.235c-.054.005-.108.012-.164.015h-.3a6.109 6.109 0 0 1-4.5-3.108c-1.451-2.3-1.593-4.829-.389-6.121a.557.557 0 0 1 .039-.041 2.4 2.4 0 0 1 .52-.445c1.7-1.073 4.4.144 6.023 2.72 1.4 2.212 1.547 4.706.484 6.045l.79 1.124" class="prefix__cls-2" transform="translate(558.292 1076.137)"/>
        <path id="prefix__path20" d="M536.976-475.645c-1.7 1.073-4.4-.144-6.023-2.72a6.3 6.3 0 0 1-1.034-4.963 1.666 1.666 0 0 1 .171-.12c1.7-1.073 4.4.144 6.023 2.72a6.426 6.426 0 0 1 1.017 4.975 1.739 1.739 0 0 1-.154.107" class="prefix__cls-3" transform="translate(556.218 1073.051)"/>
        <path id="prefix__path22" d="M600.973-487.149q-.022 9.9-.376 19.8h-24.519v-12.381a29.5 29.5 0 0 1-3.387-.088 3.942 3.942 0 0 1-1.9-.574c-1.007-.713-1.241-2.089-1.339-3.321a44.11 44.11 0 0 1 .036-7.475l.2-3.028a14.589 14.589 0 0 1 1.63-4.709A8.217 8.217 0 0 1 575-502.37c.11.1.217.208.327.31a3.423 3.423 0 0 0 1.918 1.117 2.342 2.342 0 0 0 1.185-.254 25.693 25.693 0 0 0 2.082 4.3 14.009 14.009 0 0 0 4.01-10.991h-.03a4.349 4.349 0 0 0 .015-.618 41.281 41.281 0 0 1 9.063.4l3.252.386v.027s4.531.757 4.154 20.553" class="prefix__cls-4" transform="translate(524.496 1092.934)"/>
        <path id="prefix__path24" d="M678.077-397.305l10.111-2.9-.233 17.291-8.328-10.026-1.551-4.364" class="prefix__cls-5" transform="translate(437.281 1005.991)"/>
        <path id="prefix__path26" d="M654.23-381.259a1.363 1.363 0 0 1-.081-.127c0-1.29.017-2.585.054-3.876q1.873-.154 3.749-.305v.052a3.6 3.6 0 0 1 1.591 2.641 7.326 7.326 0 0 1-.4 3.138 2.323 2.323 0 0 1-.411.848 2.594 2.594 0 0 1-2.009.6 6.056 6.056 0 0 1-3.182-.552c-.361-.217-.709-.655-.5-1.024a.883.883 0 0 1 .42-.33 5.3 5.3 0 0 1 1.491-.45 1.835 1.835 0 0 1-.721-.618" class="prefix__cls-6" transform="translate(457.406 994.253)"/>
        <path id="prefix__path28" d="M645.705-483.574c-.025.056-.051.113-.081.169a3.86 3.86 0 0 1-2.541 1.642 38.126 38.126 0 0 1-7.294 1.073c-.066 0-.129.009-.2.017q-1.873.154-3.749.305-2.965.246-5.933.486a17.433 17.433 0 0 1-.328-1.911c-.066-.52-.115-1.041-.166-1.561q-.158-1.613-.313-3.223c0-.034 0-.068-.01-.1q6.825-1.345 13.743-2.109a37.215 37.215 0 0 1-2.167-10.124c-.11-1.569-.034-3.362 1.146-4.4a4.615 4.615 0 0 1 3.4-.838c.11.007.22.017.332.027a3.8 3.8 0 0 1 2.138.777 4.753 4.753 0 0 1 1.254 2.844 64.244 64.244 0 0 1 1.024 15.436 4.587 4.587 0 0 1-.261 1.5" class="prefix__cls-4" transform="translate(479.764 1089.359)"/>
        <path id="prefix__path30" d="M565.94-436.084c0-.027.01-.051.015-.076.061-.015.122-.027.186-.037a4.57 4.57 0 0 1 3.269 1.06 27.65 27.65 0 0 0 2.832 2.1 9.473 9.473 0 0 0 4.4.941q.154 1.613.313 3.223c.051.52.1 1.041.166 1.561-2.048-.535-4.176-.689-6.263-1.048a5.972 5.972 0 0 1-3.79-1.759 4.785 4.785 0 0 1-.882-2.94 1.416 1.416 0 0 1-.43-.073 1.6 1.6 0 0 1-1.051-1.082 1.605 1.605 0 0 1 .286-1.359 1.51 1.51 0 0 1 .425-.381 1.858 1.858 0 0 1 .479-.193l.044.063" class="prefix__cls-7" transform="translate(528.227 1034.878)"/>
        <path id="prefix__path32" d="M627.985-275.1h-24.519v-25.2h24.519v25.2" class="prefix__cls-2" transform="translate(497.107 925.882)"/>
        <path id="prefix__path34" d="M566.482-552.473l.063-.012a4.007 4.007 0 0 1 .122 1.579 2.164 2.164 0 0 1-.98-.9l-2.031-2.856a.646.646 0 0 0-.332-.289.616.616 0 0 0-.4.081c-1.8.814-3.453 1.938-5.276 2.7a11.089 11.089 0 0 1-1.75.572 6.64 6.64 0 0 1-4.017-.176 2.673 2.673 0 0 1-1.029-.68 1.36 1.36 0 0 1-.344-1.151 1.631 1.631 0 0 1 1.259-1.1c.569-.147 1.168-.125 1.744-.237a5.967 5.967 0 0 0 2.568-1.341c.758-.616 1.446-1.317 2.231-1.9a5.06 5.06 0 0 1 2.668-1.1 2.671 2.671 0 0 1 2.488 1.234 3.119 3.119 0 0 1 1.779-.977 2.1 2.1 0 0 1 1.874.652 3.227 3.227 0 0 1 .581 1.3 16.6 16.6 0 0 1 .486 2.913l-.044-.071c-.269-.42-.743-.853-1.2-.665a1.083 1.083 0 0 0-.52.936 4.828 4.828 0 0 0 .061 1.488" transform="translate(539.59 1133.554)"/>
        <path id="prefix__path36" d="M621.421-504.9a14.008 14.008 0 0 1-4.01 10.991 25.7 25.7 0 0 1-2.082-4.3 5.586 5.586 0 0 0 .653-.357 14.926 14.926 0 0 0 4.835-4.855 4.012 4.012 0 0 0 .5-1.073 2.628 2.628 0 0 0 .071-.413h.03" class="prefix__cls-6" transform="translate(487.595 1089.946)"/>
        <path id="prefix__path38" d="M585.247-524.308a2.342 2.342 0 0 1-1.185.254 3.424 3.424 0 0 1-1.918-1.117c-.11-.1-.217-.205-.327-.31a14.92 14.92 0 0 1-2.825-3.4.894.894 0 0 1-.149-.733c.1-.244.374-.359.53-.572.3-.406.056-.977-.193-1.417l-1.337-2.363-.03-.127a11.109 11.109 0 0 0 1.75-.572c1.823-.763 3.475-1.886 5.276-2.7a.614.614 0 0 1 .4-.081.645.645 0 0 1 .332.288l2.029 2.858c.084.118.17.238.263.352a.4.4 0 0 0 .691-.318 6.182 6.182 0 0 0-.16-.7 4.827 4.827 0 0 1-.061-1.488c.059-.506.275-1.1.973-.968a.969.969 0 0 1 .7.6 1.074 1.074 0 0 0 .091.164 10.013 10.013 0 0 1 1.207 4.719c.005.1.012.205.015.31a4.375 4.375 0 0 1-.015.618 2.626 2.626 0 0 1-.071.413 4.016 4.016 0 0 1-.5 1.073 14.927 14.927 0 0 1-4.836 4.855 5.576 5.576 0 0 1-.653.357" class="prefix__cls-7" transform="translate(517.678 1116.045)"/>
        <path id="prefix__path40" d="M597.523-499.815q-.345.086-.693.155-.174.035-.349.066c-.043.007-.094.012-.141.021v-.048q.038-.721.131-1.438a.121.121 0 0 0-.084-.143.118.118 0 0 0-.143.084q-.054.417-.092.836-.018.21-.032.42a2.342 2.342 0 0 0-.018.391c.015.138.138.155.251.137.138-.022.276-.047.413-.073q.412-.078.819-.18a.118.118 0 0 0-.061-.228" transform="translate(503.018 1086.978)" style="fill:#c56528"/>
        <path id="prefix__path42" d="M604.726-491.25a1.481 1.481 0 0 1-.624 1.062 1.326 1.326 0 0 1-1.151.061 2.4 2.4 0 0 1-.986-.793.124.124 0 0 1-.023-.059.124.124 0 0 1 .012-.2q1.158-.8 2.377-1.509a.107.107 0 0 1 .106 0 .127.127 0 0 1 .146.076 2.489 2.489 0 0 1 .143 1.36" transform="translate(498.363 1080.157)" style="fill:#fffefd"/>
        <path id="prefix__path44" d="M605.592-519.609a.96.96 0 0 1-.287-.716.155.155 0 0 1 .014-.049.468.468 0 0 1 .033-.092.332.332 0 0 1 .367-.17.884.884 0 0 1 .621.435.539.539 0 0 1-.094.671.422.422 0 0 1-.346.1.569.569 0 0 1-.308-.181" class="prefix__cls-2" transform="translate(495.636 1102.563)"/>
        <path id="prefix__path46" d="M587.06-509.289a.958.958 0 0 1-.287-.716.15.15 0 0 1 .014-.049.463.463 0 0 1 .033-.092.332.332 0 0 1 .367-.169.886.886 0 0 1 .622.435.539.539 0 0 1-.094.671.421.421 0 0 1-.346.1.568.568 0 0 1-.308-.181" class="prefix__cls-2" transform="translate(510.496 1094.287)"/>
        <path id="prefix__path48" d="M602.054-527.037a1.855 1.855 0 0 0-1.867.544.361.361 0 0 0 0 .5.358.358 0 0 0 .5 0 1.478 1.478 0 0 1 .142-.143l.033-.028.064-.044a1.523 1.523 0 0 1 .177-.1l.027-.012c.032-.011.064-.022.1-.032a1.794 1.794 0 0 1 .185-.043h.034c.034 0 .067 0 .1-.005s.067 0 .1 0h.075l.044.008c.036.008.073.017.109.027a.356.356 0 0 0 .431-.253.36.36 0 0 0-.253-.431" class="prefix__cls-2" transform="translate(499.819 1107.745)"/>
        <path id="prefix__path50" d="M580.759-515.147a1.855 1.855 0 0 1 1.351-1.4.361.361 0 0 1 .444.229.358.358 0 0 1-.23.444 1.458 1.458 0 0 0-.193.059l-.04.016c-.023.012-.047.023-.07.036a1.456 1.456 0 0 0-.168.112l-.023.018c-.025.023-.05.046-.073.07a1.807 1.807 0 0 0-.124.144l-.019.028-.052.087c-.017.03-.031.059-.045.09l-.018.041v.008l-.007.021c0 .014-.009.029-.013.043-.01.036-.019.072-.027.109a.356.356 0 0 1-.424.263.36.36 0 0 1-.263-.424" class="prefix__cls-2" transform="translate(515.322 1099.287)"/>
        <path id="prefix__path52" d="M615.325-507.725v.026c-.114-.011-.222-.018-.333-.026a4.609 4.609 0 0 0-3.4.837c-1.178 1.041-1.255 2.835-1.144 4.4a37.212 37.212 0 0 0 2.166 10.124q-5.9.65-11.733 1.725l-8.491-11.112a6.856 6.856 0 0 1 1.115-.621l.328.312a3.42 3.42 0 0 0 1.918 1.115 2.334 2.334 0 0 0 1.186-.254 25.666 25.666 0 0 0 2.082 4.3 14.012 14.012 0 0 0 4.01-10.99H603a4.367 4.367 0 0 0 .013-.618 41.372 41.372 0 0 1 9.064.4q1.621.194 3.252.386" class="prefix__cls-5" transform="translate(505.993 1092.931)"/>
        <path id="prefix__path54" d="M653.008-243.226l-.008.048h-67.445a7.053 7.053 0 0 1 3.671-4.05 19.849 19.849 0 0 1 6.111-1.586 16.73 16.73 0 0 1-3.651-6.928c-.5-1.953-.458-4.393 1.2-5.533a4.907 4.907 0 0 1 3.87-.379 14.186 14.186 0 0 1 6.346 3.308 28.627 28.627 0 0 1 .506-10.559c.5-2.089 1.531-4.409 3.612-4.947 1.882-.49 3.791.733 5.13 2.144a15.68 15.68 0 0 1 3.93 7.478c2.1-3.739 4.293-7.578 7.665-10.228 1.782-1.4 4.265-2.436 6.274-1.383a4.916 4.916 0 0 1 2.344 3.982 14.5 14.5 0 0 1-.642 4.747l-1.567 6.262a23.054 23.054 0 0 1 8.359-3.185 5.427 5.427 0 0 1 3.567.307 4.151 4.151 0 0 1 1.662 4.424 12.141 12.141 0 0 1-2.276 4.465q-1.363 1.949-2.726 3.894a11.493 11.493 0 0 1 8.63.945 11.494 11.494 0 0 1 5.437 6.772" class="prefix__cls-10" transform="translate(511.47 906.613)"/>
        <path id="prefix__path56" d="M702.956-211.263v19.886a.2.2 0 0 0 .4 0v-19.886a.2.2 0 0 0-.4 0" class="prefix__cls-11" transform="translate(417.332 854.641)"/>
        <path id="prefix__path58" d="M766.789-205.214q-1.831 2.3-3.487 4.731v-6.1a.21.21 0 0 0 .022-.106q1.369-2.209 2.918-4.3c.153-.206-.194-.4-.345-.2q-1.369 1.845-2.6 3.789v-9.288a.2.2 0 0 0-.4 0V-207c-1.416-.681-2.945-1.1-4.326-1.858-.225-.123-.425.221-.2.345 1.446.792 3.055 1.214 4.525 1.955v6.033q-1.9-1.076-3.733-2.257c-.216-.14-.414.206-.2.345q1.928 1.25 3.933 2.373V-196a.2.2 0 0 0 .4 0v-3.8a.22.22 0 0 0 .027-.027q1.766-2.629 3.739-5.109c.158-.2-.12-.484-.28-.284" class="prefix__cls-11" transform="translate(372.969 858.991)"/>
        <path id="prefix__path60" d="M706.571-198.982a52.735 52.735 0 0 0-3.576 4.935c-.138.217.207.415.345.2a51.793 51.793 0 0 1 3.511-4.85c.161-.2-.118-.482-.28-.284" class="prefix__cls-11" transform="translate(417.326 844.692)"/>
        <path id="prefix__path62" d="M707.089-151.179a55.389 55.389 0 0 0-3.924 4.808c-.151.207.2.4.345.2a54.471 54.471 0 0 1 3.859-4.723c.173-.189-.106-.473-.28-.284" class="prefix__cls-11" transform="translate(417.193 806.357)"/>
        <path id="prefix__path64" d="M689.814-164.086a12.567 12.567 0 0 0-1.529-1.756l-1.669-1.793c-.175-.188-.458.092-.284.28l1.621 1.742.8.858a5.945 5.945 0 0 1 .715.866c.137.217.483.02.346-.2" class="prefix__cls-11" transform="translate(430.705 819.552)"/>
        <path id="prefix__path66" d="M690.864-205.841q-1.45-1.636-3.048-3.131c-.187-.175-.472.1-.284.28q1.6 1.493 3.048 3.131c.171.192.454-.089.284-.28" class="prefix__cls-11" transform="translate(429.748 852.693)"/>
        <path id="prefix__path70" d="M148.407-232.529H85.032c-.3-1.838 1.443-3.5 3.189-4.293a13.04 13.04 0 0 1 8.73-.714A16.288 16.288 0 0 1 93.1-243.6a6.788 6.788 0 0 1 1.383-6.753 6.492 6.492 0 0 1 6.143-1.3 12.363 12.363 0 0 1 5.453 3.524 15.918 15.918 0 0 1-.044-11.5c.658-1.7 1.921-3.48 3.743-3.548a4.254 4.254 0 0 1 2.543.925 11.8 11.8 0 0 1 4.094 5.891 34.885 34.885 0 0 1 1.387 7.143 12.934 12.934 0 0 1 3.775-4.456c1.611-1.192 3.831-1.993 5.589-1.032 1.73.945 2.264 3.169 2.38 5.142a24.98 24.98 0 0 1-.705 7.534 14.512 14.512 0 0 1 7.111-3.022 10.327 10.327 0 0 1 7.39 1.893c3.2 2.44 4.361 6.665 5.07 10.627" class="prefix__cls-10" transform="translate(912.845 896.113)"/>
        <path id="prefix__path72" d="M195.466-215.217v-5.2a.193.193 0 0 0 .072-.07 62.143 62.143 0 0 1 3.727-5.631c.153-.206-.194-.4-.345-.2a62.181 62.181 0 0 0-3.454 5.178v-12.235a.2.2 0 0 0-.4 0v17.7q-2.154-2.222-4.181-4.56c-.168-.195-.451.087-.284.28q2.156 2.5 4.465 4.86v5.8a.2.2 0 0 0 .4 0v-1.4a34.22 34.22 0 0 1 3.34-4.085c.177-.185-.1-.47-.28-.284a34.877 34.877 0 0 0-3.06 3.693v-3.753a.173.173 0 0 0 0-.088" class="prefix__cls-11" transform="translate(828.207 872.371)"/>
        <path id="prefix__path74" d="M263.07-180.91a47.472 47.472 0 0 0-2.959 4.227c.027-1.125.05-2.251.085-3.376q.048-1.563.105-3.124c.009-.256-.389-.254-.4 0q-.188 5.14-.27 10.283a29.441 29.441 0 0 1-3.7-2.427c-.2-.156-.4.19-.2.345a29.5 29.5 0 0 0 3.891 2.535c0 .108 0 .217-.007.325q-.023 1.563-.037 3.126a.2.2 0 0 0 .4 0q.016-1.763.047-3.525a.19.19 0 0 0 0-.089q.028-1.676.067-3.351a.186.186 0 0 0 .082-.073 46.5 46.5 0 0 1 3.176-4.59c.156-.2-.122-.485-.28-.284" class="prefix__cls-11" transform="translate(776.008 832.124)"/>
        <path id="prefix__path76" d="M162.516-146.1c-.86 1.025-1.668 2.093-2.432 3.192.072-1.4.133-2.8.175-4.2.008-.257-.391-.254-.4 0q-.111 3.685-.358 7.363c-.017.256.382.253.4 0 .057-.855.1-1.711.148-2.567a.193.193 0 0 0 .156-.087q1.21-1.772 2.59-3.418c.164-.2-.115-.481-.28-.284" class="prefix__cls-11" transform="translate(853.103 803.199)"/>
        <path id="prefix__path78" d="M554.893-354.36l3.161 5.927-.04.02h-22.593l-5.349-5.867.064-.06h24.718l.04-.02" class="prefix__cls-2" transform="translate(555.959 969.229)"/>
        <path id="prefix__path80" d="M420.163-384.628l6.342 6.952.319.351-1.475 1.343-2.6-2.846-16.176-17.738-16.173 17.737-2.595 2.846-1.475-1.343.4-.443 6.242-6.844 5.29-5.8 2.109-2.312 6.2-6.8 6.2 6.8 2.033 2.228 5.349 5.867" class="prefix__cls-2" transform="translate(671.218 1005.444)"/>
        <path id="prefix__path82" d="M333.13-354.117l-5.29 5.8-.02-.016H305.1l3.161-5.927h24.714l.156.143" class="prefix__cls-2" transform="translate(736.355 969.149)"/>
        <path id="prefix__path84" d="M354.935-388v4.516h-4.512V-388h4.512" class="prefix__cls-2" transform="translate(700.012 996.202)"/>
        <path id="prefix__path86" d="M593.969-128.324v3.8h-23.825v-3.8h23.825" class="prefix__cls-12" transform="translate(523.827 787.98)"/>
        <path id="prefix__path88" d="M579.7-324.447l3.667 6.88h-19.856l-.1.092-6.342-6.952h22.593l.04-.02" class="prefix__cls-13" transform="translate(534.311 945.243)"/>
        <path id="prefix__path90" d="M587.436-269.1v-1.9h-1.754v-14.677H576.9V-271h-1.754v1.905zm4.2-24.917v31.981h-21.492v-19.779h.048v-1.646h-.048v-11.616l2.6 2.846 1.475-1.343-.319-.351.1-.092h17.642" class="prefix__cls-14" transform="translate(523.827 921.692)"/>
        <path id="prefix__path92" d="M607.665-173.588v1.905h-12.293v-1.905h12.293" class="prefix__cls-13" transform="translate(503.598 824.276)"/>
        <path id="prefix__path94" d="M545.521-365.2l1.144 2.149-.04.02h-24.717l-.064.06-2.033-2.228h25.711" class="prefix__cls-13" transform="translate(564.187 977.925)"/>
        <path id="prefix__path96" d="M613.009-247.659v14.677h-.8v-13.529h-7.1v13.529h-.881v-14.677h8.785" class="prefix__cls-13" transform="translate(496.5 883.671)"/>
        <path id="prefix__path98" d="M632.936-207.726v6.764h-2.862v-6.764h2.862" class="prefix__cls-3" transform="translate(475.772 851.65)"/>
        <path id="prefix__path100" d="M632.936-214.063v1.256h-2.862v-1.256h2.862" class="prefix__cls-13" transform="translate(475.772 856.732)"/>
        <path id="prefix__path102" d="M632.936-241.865v5.509h-2.862v-5.509h2.862" class="prefix__cls-3" transform="translate(475.772 879.024)"/>
        <path id="prefix__path104" d="M625.137-207.726v6.764h-1.22v-6.764h1.22" class="prefix__cls-13" transform="translate(480.709 851.65)"/>
        <path id="prefix__path106" d="M625.137-214.063v1.256h-1.22v-1.256h1.22" class="prefix__cls-13" transform="translate(480.709 856.732)"/>
        <path id="prefix__path108" d="M625.137-241.865v5.509h-1.22v-5.509h1.22" class="prefix__cls-13" transform="translate(480.709 879.024)"/>
        <path id="prefix__path110" d="M611.691-207.726v6.764h-3.021v-6.764h3.021" class="prefix__cls-3" transform="translate(492.936 851.65)"/>
        <path id="prefix__path112" d="M611.691-214.063v1.256h-3.021v-1.256h3.021" class="prefix__cls-13" transform="translate(492.936 856.732)"/>
        <path id="prefix__path114" d="M611.691-241.865v5.509h-3.021v-5.509h3.021" class="prefix__cls-3" transform="translate(492.936 879.024)"/>
        <path id="prefix__path116" d="M439.224-208.366v3.8h-4.755v-3.034h-5.079v-17.2h-12.684v17.2h-5.078v3.037h-4.755v-23.578h32.351v19.779" class="prefix__cls-14" transform="translate(654.748 868.023)"/>
        <path id="prefix__path118" d="M439.224-236.454v1.646h-32.352v-1.646h32.351" transform="translate(654.748 874.686)" style="fill:#fcd8a1"/>
        <path id="prefix__path120" d="M431.515-357v-1.933H429.1v-14.888H417v14.888h-2.42V-357zm7.709-9.858v11.616h-32.352v-11.618l16.176-17.74 16.176 17.738" class="prefix__cls-14" transform="translate(654.748 997.25)"/>
        <path id="prefix__path122" d="M453.713-124.481v3.037h-22.84v-3.037h22.84" class="prefix__cls-12" transform="translate(635.503 784.899)"/>
        <path id="prefix__path124" d="M462.712-255.082v1.933h-16.933v-1.933h16.933" class="prefix__cls-13" transform="translate(623.55 889.622)"/>
        <path id="prefix__path126" d="M474.106-211.288v17.2h-11.469v-17.2h11.468" transform="translate(610.032 854.506)" style="fill:#48141c"/>
        <path id="prefix__path128" d="M470.085-330.221v14.888h-1.212v-13.724h-9.782v13.724h-1.1v-14.888h12.094" class="prefix__cls-13" transform="translate(613.758 949.873)"/>
        <path id="prefix__path130" d="M496.086-289.725v6.864h-4.158v-6.864h4.158" class="prefix__cls-3" transform="translate(586.545 917.401)"/>
        <path id="prefix__path132" d="M496.086-296.142v1.272h-4.158v-1.272h4.158" class="prefix__cls-13" transform="translate(586.545 922.547)"/>
        <path id="prefix__path134" d="M496.086-324.347v5.589h-4.158v-5.589h4.158" class="prefix__cls-3" transform="translate(586.545 945.163)"/>
        <path id="prefix__path136" d="M485.122-289.725v6.864h-1.682v-6.864h1.682" class="prefix__cls-13" transform="translate(593.351 917.401)"/>
        <path id="prefix__path138" d="M485.122-296.142v1.272h-1.682v-1.272h1.682" class="prefix__cls-13" transform="translate(593.351 922.547)"/>
        <path id="prefix__path140" d="M485.122-324.347v5.589h-1.682v-5.589h1.682" class="prefix__cls-13" transform="translate(593.351 945.163)"/>
        <path id="prefix__path142" d="M467.485-289.725v6.864h-3.943v-6.864h3.943" class="prefix__cls-3" transform="translate(609.306 917.401)"/>
        <path id="prefix__path144" d="M467.485-296.142v1.272h-3.943v-1.272h3.943" class="prefix__cls-13" transform="translate(609.306 922.547)"/>
        <path id="prefix__path146" d="M467.485-324.347v5.589h-3.943v-5.589h3.943" class="prefix__cls-3" transform="translate(609.306 945.163)"/>
        <path id="prefix__path148" d="M457.717-211.288v17.2H456.5v-17.2h1.216" transform="translate(614.952 854.506)" style="fill:#1e0b0d"/>
        <path id="prefix__path150" d="M348.031-365.2l-2.109 2.312-.156-.143h-24.713l1.156-2.168h25.822" class="prefix__cls-13" transform="translate(723.563 977.925)"/>
        <path id="prefix__path152" d="M313.048-324.331l-6.242 6.844h-20.153l3.655-6.86h22.721l.02.016" class="prefix__cls-13" transform="translate(751.147 945.163)"/>
        <path id="prefix__path154" d="M310.473-128.324v3.8h-23.82v-3.8h23.821" class="prefix__cls-12" transform="translate(751.147 787.98)"/>
        <path id="prefix__path156" d="M314.9-269.1v-1.9h-1.754v-14.677h-8.785V-271H302.6v1.905zm5-12.715v19.779h-21.5v-31.981h17.826l-.4.443 1.475 1.343 2.595-2.846v13.262" class="prefix__cls-14" transform="translate(741.726 921.692)"/>
        <path id="prefix__path158" d="M331.9-173.588v1.905h-12.3v-1.905h12.3" class="prefix__cls-13" transform="translate(724.724 824.276)"/>
        <path id="prefix__path160" d="M337.241-247.659v14.677h-.881v-13.529h-7.1v13.529h-.8v-14.677h8.785" class="prefix__cls-13" transform="translate(717.627 883.671)"/>
        <path id="prefix__path162" d="M356.121-207.726v6.764H353.1v-6.764h3.022" class="prefix__cls-3" transform="translate(697.866 851.65)"/>
        <path id="prefix__path164" d="M356.121-214.063v1.256H353.1v-1.256h3.022" class="prefix__cls-13" transform="translate(697.866 856.732)"/>
        <path id="prefix__path166" d="M356.121-241.865v5.509H353.1v-5.509h3.022" class="prefix__cls-3" transform="translate(697.866 879.024)"/>
        <path id="prefix__path168" d="M348.163-207.726v6.764h-1.22v-6.764h1.22" class="prefix__cls-13" transform="translate(702.802 851.65)"/>
        <path id="prefix__path170" d="M348.163-214.063v1.256h-1.22v-1.256h1.22" class="prefix__cls-13" transform="translate(702.802 856.732)"/>
        <path id="prefix__path172" d="M348.163-241.865v5.509h-1.22v-5.509h1.22" class="prefix__cls-13" transform="translate(702.802 879.024)"/>
        <path id="prefix__path174" d="M335.361-207.726v6.764H332.5v-6.764h2.862" class="prefix__cls-3" transform="translate(714.384 851.65)"/>
        <path id="prefix__path176" d="M335.361-214.063v1.256H332.5v-1.256h2.862" class="prefix__cls-13" transform="translate(714.384 856.732)"/>
        <path id="prefix__path178" d="M335.361-241.865v5.509H332.5v-5.509h2.862" class="prefix__cls-3" transform="translate(714.384 879.024)"/>
        <path id="prefix__path180" d="M390.4-295.077l-4.07 33.041h4.07z" class="prefix__cls-18" transform="translate(671.218 921.692)"/>
        <path id="prefix__path182" d="M570.144-262.036l6.753-31.981h-2.9l-.1.092.319.351-1.475 1.343-2.6-2.846v33.041" class="prefix__cls-18" transform="translate(523.827 921.692)"/>
        <path id="prefix__path184" d="M85.171-109.3l166.6-.2s-19.009 5.915-86.846 5.915-79.754-5.715-79.754-5.715" transform="translate(912.706 772.885)" style="fill:#e3e4e2"/>
        <path id="prefix__path190" d="M311.713-238.311l.6 1.221 1.347.2-.975.951.23 1.342-1.205-.634-1.205.634.23-1.342-.975-.951 1.347-.2.6-1.221" class="prefix__cls-14" transform="translate(732.615 876.175)"/>
        <path id="prefix__path214" d="M311.713-150.04l.6 1.221 1.347.2-.975.951.23 1.342-1.205-.634-1.205.634.23-1.342-.975-.951 1.347-.2.6-1.221" class="prefix__cls-14" transform="translate(732.615 805.394)"/>
    </g>
</svg>
